<svg width="32" height="32" viewBox="0 0 32 32" fill="none" xmlns="http://www.w3.org/2000/svg">
<path fill-rule="evenodd" clip-rule="evenodd" d="M25.7381 9C25.7381 9.82843 25.0665 10.5 24.2381 10.5H7.43958C6.61115 10.5 5.93958 9.82843 5.93958 9C5.93958 8.17157 6.61115 7.5 7.43958 7.5H24.2381C25.0665 7.5 25.7381 8.17157 25.7381 9Z" fill="black"/>
<path fill-rule="evenodd" clip-rule="evenodd" d="M25.7381 16C25.7381 16.8284 25.0665 17.5 24.2381 17.5H7.43958C6.61115 17.5 5.93958 16.8284 5.93958 16C5.93958 15.1716 6.61115 14.5 7.43958 14.5H24.2381C25.0665 14.5 25.7381 15.1716 25.7381 16Z" fill="black"/>
<path fill-rule="evenodd" clip-rule="evenodd" d="M25.7381 23C25.7381 23.8284 25.0665 24.5 24.2381 24.5H7.43958C6.61115 24.5 5.93958 23.8284 5.93958 23C5.93958 22.1716 6.61115 21.5 7.43958 21.5H24.2381C25.0665 21.5 25.7381 22.1716 25.7381 23Z" fill="black"/>
<ellipse cx="23.7582" cy="8" rx="3.9597" ry="4" fill="#FF5555"/>
</svg>
