<svg width="48" height="48" viewBox="0 0 48 48" fill="none" xmlns="http://www.w3.org/2000/svg">
<path fill-rule="evenodd" clip-rule="evenodd" d="M24.0111 3.96741C31.7431 3.96741 38.0111 10.1843 38.0111 17.8533C38.2911 24.0623 33.2711 32.3343 25.6311 42.8083C25.255 43.3236 24.6525 43.6287 24.0111 43.6287C23.3698 43.6287 22.7673 43.3236 22.3911 42.8083C14.7511 32.3145 9.73114 24.0425 10.0111 17.8533C10.0111 10.1843 16.2792 3.96741 24.0111 3.96741ZM24.0111 38.3053C29.3511 30.8069 34.2911 22.8919 34.0111 18.0319V17.9723V17.8533C34.0111 12.3755 29.534 7.93481 24.0111 7.93481C18.4883 7.93481 14.0111 12.3755 14.0111 17.8533V17.9723C13.7311 22.8324 18.6711 30.7474 24.0111 38.3053ZM24.0111 11.9022C20.6974 11.9022 18.0111 14.5666 18.0111 17.8533C18.0111 21.14 20.6974 23.8044 24.0111 23.8044C27.3249 23.8044 30.0111 21.14 30.0111 17.8533C30.0111 16.275 29.379 14.7613 28.2538 13.6453C27.1286 12.5292 25.6024 11.9022 24.0111 11.9022ZM22.0111 17.8533C22.0111 18.9489 22.9066 19.837 24.0111 19.837C25.1157 19.837 26.0111 18.9489 26.0111 17.8533C26.0111 16.7578 25.1157 15.8696 24.0111 15.8696C22.9066 15.8696 22.0111 16.7578 22.0111 17.8533Z" fill="#231F20"/>
</svg>
