<svg width="48" height="48" viewBox="0 0 48 48" fill="none" xmlns="http://www.w3.org/2000/svg">
<path fill-rule="evenodd" clip-rule="evenodd" d="M42.98 10.5533C41.8624 8.91328 39.9958 7.93181 38 7.93479H10C6.68629 7.93479 4 10.5992 4 13.8859V33.7229C4 37.0096 6.68629 39.674 10 39.674H38C41.3137 39.674 44 37.0096 44 33.7229V13.8859C44.0027 12.699 43.6475 11.5384 42.98 10.5533ZM10 11.9022H38C38.5745 11.9029 39.1209 12.1486 39.5 12.5767L24 21.5628L8.52 12.5568C8.89812 12.1413 9.43564 11.9035 10 11.9022ZM38 35.7066C39.1046 35.7066 40 34.8185 40 33.7229V16.8416L26 24.9748C25.3923 25.3244 24.7025 25.5092 24 25.5104C23.2993 25.5152 22.6096 25.3373 22 24.9946L8 16.8416V33.7229C8 34.8185 8.89543 35.7066 10 35.7066H38Z" fill="#231F20"/>
</svg>
