<svg width="48" height="48" viewBox="0 0 48 48" fill="none" xmlns="http://www.w3.org/2000/svg">
<path fill-rule="evenodd" clip-rule="evenodd" d="M40 15.3538L43.32 18.3492C44.1474 19.0728 44.2279 20.3242 43.5 21.1463C42.7705 21.9669 41.5088 22.0468 40.68 21.3248L40 20.7297V37.6903C40 40.977 37.3137 43.6414 34 43.6414H28C26.8954 43.6414 26 42.7533 26 41.6577V31.7392C26.0085 31.2225 25.7981 30.726 25.42 30.3705C25.0492 29.9846 24.5374 29.7629 24 29.7555C22.8954 29.7555 22 30.6437 22 31.7392V41.6577C22 42.7533 21.1046 43.6414 20 43.6414H14C10.6863 43.6414 7.99999 40.977 7.99999 37.6903V20.7297L7.31999 21.3248C6.48616 21.9909 5.27132 21.8876 4.56401 21.0904C3.8567 20.2932 3.90783 19.0849 4.67999 18.3492L7.99999 15.3538L9.69999 13.8859L22.68 2.47962C23.435 1.82173 24.565 1.82173 25.32 2.47962L38.3 13.8859L40 15.3538ZM34 39.674C35.1046 39.674 36 38.7859 36 37.6903V17.1987L24 6.62556L12 17.1987V37.6903C12 38.7859 12.8954 39.674 14 39.674H18V31.7392C18 28.4525 20.6863 25.7881 24 25.7881C27.3137 25.7881 30 28.4525 30 31.7392V39.674H34Z" fill="#231F20"/>
</svg>
