<svg width="27" height="25" viewBox="0 0 27 25" fill="none" xmlns="http://www.w3.org/2000/svg">
<path d="M13.4904 0C6.02249 0 0 4.81794 0 10.667C0 14.4635 2.50535 17.7879 6.26338 19.6862L4.99144 24.4368C4.96745 24.508 4.96377 24.5844 4.98078 24.6576C4.9978 24.7308 5.03485 24.7978 5.08779 24.8511C5.16499 24.9192 5.26431 24.9568 5.36724 24.9571C5.45258 24.9502 5.53354 24.9165 5.5985 24.8607L11.0717 21.1702C11.8797 21.2817 12.6941 21.3396 13.5096 21.3436C20.9679 21.3436 27 16.5256 27 10.667C27 4.8083 20.9486 0 13.4904 0Z" fill="#392020"/>
<path d="M4.72123 8.98065H3.24692C3.06419 8.98595 2.88372 8.93915 2.72658 8.84573C2.65681 8.80202 2.59684 8.74434 2.55041 8.67635C2.50398 8.60836 2.4721 8.53151 2.45677 8.45062C2.45209 8.39934 2.45209 8.34782 2.45677 8.29653C2.4522 8.20057 2.47082 8.10487 2.51108 8.01764C2.55134 7.93041 2.61204 7.85422 2.68804 7.79544C2.85603 7.67378 3.05879 7.60951 3.26619 7.6123H7.70838C7.89256 7.60583 8.07426 7.65632 8.22872 7.75686C8.30013 7.79864 8.36138 7.85581 8.40804 7.92413C8.45469 7.99245 8.4856 8.07025 8.49853 8.15197C8.50323 8.20004 8.50323 8.24847 8.49853 8.29653C8.50307 8.39388 8.48449 8.49089 8.44429 8.57966C8.40409 8.66843 8.34342 8.74635 8.26727 8.80715C8.10337 8.92867 7.90256 8.98998 7.69874 8.98065H6.27262V14.0492C6.27841 14.1572 6.2617 14.2651 6.22355 14.3663C6.1854 14.4675 6.12663 14.5597 6.05099 14.637C5.97845 14.7109 5.89126 14.7688 5.795 14.8069C5.69875 14.8451 5.59557 14.8627 5.4921 14.8586C5.31113 14.8637 5.134 14.8059 4.99103 14.6948C4.85492 14.5863 4.76254 14.4323 4.73087 14.2611C4.72134 14.1908 4.72134 14.1195 4.73087 14.0492L4.72123 8.98065Z" fill="#FEE500"/>
<path d="M8.92384 7.98813C8.96622 7.82956 9.06576 7.69225 9.20328 7.60267C9.34983 7.51961 9.51681 7.47954 9.68508 7.48704H10.0512C10.2298 7.48064 10.4066 7.52402 10.562 7.61231C10.7266 7.723 10.8435 7.89153 10.8896 8.08447L12.8168 13.5288C12.8667 13.6709 12.9086 13.8157 12.942 13.9625C12.9453 14.0235 12.9453 14.0845 12.942 14.1455C12.9453 14.2394 12.928 14.3329 12.8914 14.4195C12.8548 14.506 12.7997 14.5836 12.73 14.6466C12.6625 14.7158 12.5815 14.7704 12.492 14.8068C12.4024 14.8433 12.3063 14.8609 12.2097 14.8586C12.0611 14.8734 11.9118 14.8377 11.786 14.7573C11.6601 14.6769 11.565 14.5564 11.5159 14.4154L11.1112 13.2302H8.57694L8.17224 14.4154C8.12437 14.5592 8.02809 14.682 7.89983 14.7628C7.77156 14.8437 7.61923 14.8775 7.46881 14.8586C7.30586 14.8629 7.14626 14.8119 7.01591 14.714C6.88892 14.613 6.80324 14.4692 6.77501 14.3094C6.7699 14.2549 6.7699 14.2 6.77501 14.1455C6.75847 14.0499 6.75847 13.9522 6.77501 13.8565C6.77501 13.7505 6.84247 13.6348 6.88101 13.5288L8.92384 7.98813ZM9.88744 9.2505L8.97202 12.1413H10.7932L9.88744 9.2505Z" fill="#FEE500"/>
<path d="M13.1627 8.29664C13.1529 8.0804 13.2291 7.86908 13.3747 7.70886C13.4487 7.63422 13.5375 7.57589 13.6355 7.53772C13.7334 7.49954 13.8382 7.48227 13.9432 7.48714C14.1237 7.48503 14.2999 7.54266 14.4443 7.65099C14.5781 7.76402 14.667 7.92125 14.6948 8.09421C14.7043 8.16133 14.7043 8.22952 14.6948 8.29664V13.3652H17.3447C17.5284 13.3628 17.709 13.4128 17.8651 13.5096C17.9352 13.5529 17.9955 13.6105 18.042 13.6785C18.0885 13.7466 18.1201 13.8236 18.1349 13.9047C18.1349 13.9047 18.1349 14.0011 18.1349 14.0493C18.1395 14.1453 18.1208 14.2408 18.0806 14.3281C18.0403 14.4153 17.9796 14.4916 17.9036 14.5504C17.7356 14.672 17.5329 14.7362 17.3255 14.7334H14.0685C13.8611 14.7468 13.6549 14.6928 13.4807 14.5793C13.3249 14.4628 13.2211 14.2898 13.1916 14.0975C13.1846 13.9916 13.1846 13.8853 13.1916 13.7795L13.1627 8.29664Z" fill="#FEE500"/>
<path d="M18.3085 8.29669C18.3027 8.08107 18.3784 7.87121 18.5205 7.70891C18.6649 7.57768 18.8502 7.50019 19.045 7.48965C19.2398 7.47912 19.4324 7.53614 19.5901 7.65104C19.7268 7.76307 19.8191 7.92023 19.8503 8.09425C19.855 8.16162 19.855 8.22932 19.8503 8.29669V10.6575L22.2882 7.84371C22.3821 7.74772 22.4818 7.6577 22.5869 7.57399C22.6858 7.51506 22.7993 7.48493 22.9145 7.48718C23.0829 7.48626 23.2476 7.53671 23.3867 7.63175C23.4522 7.67586 23.5081 7.73279 23.5512 7.79901C23.5942 7.86524 23.6235 7.93943 23.6372 8.01721C23.6411 8.03628 23.6411 8.05601 23.6372 8.07508C23.6325 8.09732 23.6325 8.12024 23.6372 8.14248C23.6369 8.24388 23.6103 8.34351 23.5601 8.43161C23.509 8.52489 23.4476 8.61206 23.377 8.69168L21.7774 10.4455L23.7046 13.4326V13.529C23.8047 13.667 23.8827 13.8199 23.9359 13.9819V14.03C23.947 14.1417 23.931 14.2544 23.889 14.3585C23.847 14.4625 23.7805 14.5548 23.695 14.6275C23.5343 14.749 23.3376 14.8135 23.1361 14.8106C23.0023 14.8161 22.8693 14.7861 22.7507 14.7238C22.6223 14.6377 22.5166 14.5221 22.4423 14.3866L20.65 11.4958L19.7924 12.392V14.0011C19.7982 14.2167 19.7225 14.4266 19.5804 14.5889C19.5043 14.6633 19.4137 14.7215 19.3143 14.7596C19.2149 14.7977 19.1087 14.8151 19.0023 14.8106C18.8245 14.8143 18.6509 14.7564 18.5109 14.6468C18.3747 14.5383 18.2824 14.3843 18.2507 14.2132C18.2412 14.1429 18.2412 14.0715 18.2507 14.0011L18.3085 8.29669Z" fill="#FEE500"/>
</svg>
