<svg width="48" height="48" viewBox="0 0 48 48" fill="none" xmlns="http://www.w3.org/2000/svg">
<path fill-rule="evenodd" clip-rule="evenodd" d="M34 13.8859C34 8.40808 29.5228 3.96741 24 3.96741C18.4772 3.96741 14 8.40808 14 13.8859C14 19.3638 18.4772 23.8044 24 23.8044H22C12.0589 23.8044 4 31.7976 4 41.6577C4 42.7533 4.89543 43.6414 6 43.6414H42C43.1046 43.6414 44 42.7533 44 41.6577C44 31.7976 35.9411 23.8044 26 23.8044H24C26.6522 23.8044 29.1957 22.7594 31.0711 20.8994C32.9464 19.0393 34 16.5165 34 13.8859ZM22 27.7718C15.0392 27.7701 9.13439 32.8408 8.14 39.674H39.86C38.8656 32.8408 32.9608 27.7701 26 27.7718H22ZM18 13.8859C18 17.1726 20.6863 19.837 24 19.837C25.5913 19.837 27.1174 19.21 28.2426 18.094C29.3679 16.9779 30 15.4642 30 13.8859C30 10.5992 27.3137 7.93481 24 7.93481C20.6863 7.93481 18 10.5992 18 13.8859Z" fill="#231F20"/>
</svg>
